<svg xmlns="http://www.w3.org/2000/svg" width="32" height="32" viewBox="0 0 32 32">
  <!-- Fond du globe -->
  <circle cx="16" cy="16" r="15" fill="#4F46E5" stroke="#312E81" stroke-width="1"/>
  
  <!-- Continents stylisés -->
  <!-- Amérique du Nord -->
  <path d="M6 12 Q8 10 10 12 Q12 14 10 16 Q8 15 6 14 Z" fill="#10B981"/>
  
  <!-- Europe/Afrique -->
  <path d="M14 8 Q16 6 18 8 Q20 10 19 14 Q18 18 16 20 Q14 18 13 14 Q12 10 14 8 Z" fill="#10B981"/>
  
  <!-- Asie -->
  <path d="M22 10 Q25 8 26 12 Q25 16 22 18 Q20 16 21 12 Q22 10 22 10 Z" fill="#10B981"/>
  
  <!-- Océanie (petites îles) -->
  <circle cx="24" cy="22" r="1" fill="#10B981"/>
  <circle cx="26" cy="24" r="0.5" fill="#10B981"/>
  
  <!-- Grille de latitude/longitude -->
  <circle cx="16" cy="16" r="12" fill="none" stroke="#312E81" stroke-width="0.5" opacity="0.3"/>
  <circle cx="16" cy="16" r="8" fill="none" stroke="#312E81" stroke-width="0.5" opacity="0.3"/>
  <line x1="16" y1="4" x2="16" y2="28" stroke="#312E81" stroke-width="0.5" opacity="0.3"/>
  <line x1="8" y1="16" x2="24" y2="16" stroke="#312E81" stroke-width="0.5" opacity="0.3"/>
  
  <!-- Étoiles pour donner un aspect international -->
  <circle cx="8" cy="8" r="0.5" fill="#FBBF24" opacity="0.8"/>
  <circle cx="24" cy="6" r="0.5" fill="#FBBF24" opacity="0.8"/>
  <circle cx="26" cy="26" r="0.5" fill="#FBBF24" opacity="0.8"/>
  <circle cx="6" cy="26" r="0.5" fill="#FBBF24" opacity="0.8"/>
</svg>